<svg width="231" height="42" viewBox="0 0 231 42" fill="none" xmlns="http://www.w3.org/2000/svg">
<g clip-path="url(#clip0_121_340)">
<path d="M68.604 6.497H69.729L76.909 21.112H75.63L73.672 17.051H64.575L62.617 21.112H61.424L68.604 6.497ZM73.184 16.077L69.133 7.678L65.06 16.076L73.184 16.077ZM79.598 6.603H86.073C87.663 6.527 89.22 7.04 90.411 8.033C90.7783 8.37931 91.0711 8.79695 91.2714 9.26035C91.4718 9.72375 91.5754 10.2232 91.576 10.728V10.771C91.576 13.196 89.657 14.583 87.075 14.917L92.138 21.117H90.681L85.787 15.102H80.723V21.112H79.598V6.603ZM85.938 14.128C88.515 14.128 90.439 12.905 90.439 10.813V10.771C90.439 8.821 88.808 7.593 86.012 7.593H80.74V14.128H85.938ZM94.969 6.603H101.444C103.033 6.527 104.591 7.04 105.782 8.033C106.149 8.37931 106.442 8.79695 106.642 9.26035C106.843 9.72375 106.946 10.2232 106.947 10.728V10.771C106.947 13.196 105.028 14.583 102.446 14.917L107.509 21.117H106.069L101.157 15.107H96.094V21.117H94.969V6.603ZM101.315 14.128C103.892 14.128 105.816 12.905 105.816 10.813V10.771C105.816 8.821 104.184 7.593 101.388 7.593H96.116V14.128H101.315ZM108.562 13.9V13.858C108.562 9.897 111.667 6.354 116.337 6.354C121.007 6.354 124.068 9.86 124.068 13.815V13.858C124.068 17.818 120.962 21.361 116.292 21.361C111.622 21.361 108.562 17.856 108.562 13.901V13.9ZM122.88 13.9V13.858C122.88 10.273 120.107 7.328 116.292 7.328C112.478 7.328 109.749 10.23 109.749 13.815V13.858C109.749 17.443 112.523 20.387 116.337 20.387C120.152 20.387 122.875 17.485 122.875 13.9H122.88ZM125.671 6.603H126.948L131.792 19.518L136.293 6.561H137.177L141.678 19.518L146.522 6.603H147.709L142.117 21.218H141.188L136.687 8.615L132.186 21.218H131.264L125.671 6.603ZM149.042 19L149.791 18.19C151.479 19.661 153.048 20.344 155.321 20.344C157.594 20.344 159.22 19.121 159.22 17.464V17.421C159.22 15.886 158.36 14.996 154.86 14.334C151.158 13.63 149.661 12.449 149.661 10.252V10.209C149.661 8.054 151.754 6.397 154.618 6.397C156.546 6.342 158.426 6.971 159.884 8.16L159.158 9.007C157.904 7.927 156.256 7.341 154.556 7.371C152.306 7.371 150.792 8.594 150.792 10.109V10.151C150.792 11.687 151.631 12.619 155.293 13.328C158.86 14.011 160.357 15.213 160.357 17.331V17.374C160.357 19.714 158.219 21.334 155.248 21.334C152.933 21.357 150.703 20.519 149.042 19ZM167.519 7.593H162.135V6.603H174.029V7.6H168.656V21.118H167.53L167.519 7.593ZM176.971 6.603H183.447C185.021 6.52181 186.568 7.03185 187.785 8.033C188.152 8.37933 188.445 8.79699 188.645 9.2604C188.845 9.72381 188.949 10.2232 188.949 10.728V10.771C188.949 13.196 187.031 14.583 184.448 14.917L189.512 21.117H188.072L183.16 15.107H178.096V21.117H176.971V6.603ZM183.312 14.128C185.889 14.128 187.813 12.905 187.813 10.813V10.771C187.813 8.821 186.181 7.593 183.385 7.593H178.113V14.128H183.312ZM191.791 6.603H202.762V7.6H192.938V13.297H201.772V14.293H192.938V20.118H202.874V21.113H191.791V6.603ZM206.019 6.603H216.991V7.6H207.145V13.297H215.978V14.293H207.145V20.118H217.081V21.113H206.019V6.603ZM224.479 7.593H219.106V6.603H231V7.6H225.627V21.118H224.502L224.479 7.593ZM61.427 35.928V35.897C61.4153 35.1862 61.5548 34.4809 61.836 33.828C62.1224 33.1649 62.5417 32.5676 63.068 32.073C63.6066 31.5665 64.2392 31.1704 64.93 30.907C65.6308 30.6395 66.3759 30.5071 67.126 30.517C67.928 30.488 68.726 30.618 69.471 30.897C70.209 31.1715 70.8834 31.5934 71.453 32.137L70.21 33.487C69.8049 33.0865 69.3261 32.7683 68.8 32.55C68.2654 32.3274 67.6939 32.207 67.115 32.195C66.616 32.202 66.124 32.305 65.667 32.495C65.21 32.685 64.799 32.959 64.458 33.302C64.12 33.6403 63.8554 34.0447 63.681 34.49C63.509 34.932 63.433 35.4 63.458 35.87V35.902C63.458 37.94 64.988 39.608 67.104 39.608C67.7004 39.6043 68.2903 39.4833 68.84 39.252C69.3807 39.0252 69.8697 38.6908 70.277 38.269L71.527 39.46C70.9606 40.0692 70.2677 40.547 69.497 40.86C68.7133 41.1798 67.871 41.3308 67.025 41.303C66.2812 41.3088 65.5431 41.1731 64.85 40.903C64.1672 40.6371 63.5434 40.2396 63.014 39.733C62.4964 39.2386 62.0862 38.6429 61.809 37.983C61.5371 37.3329 61.4069 36.6324 61.427 35.928ZM80.646 30.617H82.446L87.313 41.097H85.26L84.134 38.587H78.908L77.782 41.097H75.78L80.646 30.617ZM83.426 36.971L81.513 32.809L79.617 36.972L83.426 36.971ZM91.179 30.691H95.528C98.121 30.691 99.731 32.073 99.731 34.171V34.202C99.731 36.537 97.739 37.755 95.308 37.755H93.114V41.102H91.173L91.179 30.691ZM95.381 36.103C96.85 36.103 97.767 35.33 97.767 34.244V34.213C97.767 32.995 96.833 32.354 95.381 32.354H93.131V36.103H95.381ZM105.002 30.691H106.943V41.096H105.002V30.691ZM115.782 32.391H112.277V30.697H121.24V32.391H117.734V41.101H115.782V32.391ZM128.947 30.617H130.748L135.615 41.097H133.561L132.436 38.587H127.209L126.084 41.097H124.092L128.947 30.617ZM131.727 36.971L129.814 32.809L127.918 36.972L131.727 36.971ZM140.661 30.691H142.602V39.434H148.414V41.102H140.661V30.691ZM31.1 25.084L27.282 27.859L28.527 30.626L33.553 42H38.812L31.1 25.084ZM19.66 0L0 42H5.198L10.337 30.626L12.257 26.475L19.548 10.421L25.519 23.891L29.083 20.665L19.66 0Z" fill="white"/>
<path fill-rule="evenodd" clip-rule="evenodd" d="M40.8296 22.726L41.3396 14.536L31.1526 18.991L34.0776 19.231C30.0346 23.15 23.6436 29.031 17.4326 30.132C15.4146 30.492 13.1566 30.132 12.0996 28.967C13.0152 30.1219 14.2068 31.0277 15.5646 31.601C23.6286 35.597 33.6726 26.539 39.3146 21.124L40.8296 22.726Z" fill="white"/>
</g>
<defs>
<clipPath id="clip0_121_340">
<rect width="231" height="42" fill="white"/>
</clipPath>
</defs>
</svg>
