<svg width="30" height="18" viewBox="0 0 30 18" fill="none" xmlns="http://www.w3.org/2000/svg">
<path d="M29.9475 8.07986C30.4406 3.72886 27.3853 0.391864 23.9849 0.0328642C20.4558 -0.340136 17.2191 2.51189 17.4677 6.04889C17.6363 8.45789 19.3175 9.59087 20.945 10.7019C22.4342 11.7179 21.8856 13.8479 20.6059 14.5979C19.833 15.0509 18.874 14.9769 18.0924 15.8219C17.8848 16.0469 17.8624 16.9099 18.1265 17.0589C19.3262 17.7389 29.0031 16.4089 29.9475 8.07986Z" fill="#FF984A"/>
<path d="M12.4933 8.07986C12.9864 3.72886 9.93104 0.391864 6.53064 0.0328642C3.00159 -0.340136 -0.235085 2.51189 0.0134398 6.04889C0.182047 8.45789 1.86323 9.59087 3.49083 10.7019C4.98002 11.7179 4.43133 13.8479 3.15167 14.5979C2.37881 15.0509 1.41979 14.9769 0.638154 15.8219C0.430563 16.0469 0.40815 16.9099 0.672268 17.0589C1.87298 17.7389 11.5498 16.4089 12.4933 8.07986Z" fill="#FF984A"/>
</svg>
