<svg xmlns="http://www.w3.org/2000/svg" width="2124.55" height="458.667" viewBox="0 0 2124.55 458.667">
  <g id="Group_3" data-name="Group 3" transform="translate(-737.725 -1370.667)">
    <rect id="Rectangle_1" data-name="Rectangle 1" width="6.432" height="403.548" transform="translate(1344.745 1398.226)" fill="#44632d"/>
    <path id="Path_1" data-name="Path 1" d="M936.227,1773.6c-1.893.823-3.777,1.664-5.694,2.434a125.171,125.171,0,0,1-26.184,7.571c-.58.1-1.165.171-1.747.257a92.2,92.2,0,0,1-15.409,1.022c-19.766-.409-36.163-7.987-49.106-22.96-7.192-8.321-12.341-17.856-16.543-27.95a119.863,119.863,0,0,1-9.517-40.562,128.58,128.58,0,0,1,1.724-27.208c1.57-9.5,3.14-19.015,6.163-28.195,9.013-27.366,24.771-50.276,46.11-69.458,9.519-8.557,19.852-15.94,31.56-21.25a66.921,66.921,0,0,1,25.551-6.363c10.711-.363,19.769,3.2,27.129,10.977a51.575,51.575,0,0,1,9.233,13.684c2.076,5.164,13.28,38.114-23.121,71.309a137.806,137.806,0,0,1-15.021,11.267c-15.557,10.125-36.7,19.923-65.5,27.315,0,0-9.464,4.3,3.441,4.3,0,0,56.556-5.464,97.333-28.28.872-.484,1.742-.969,2.578-1.465.483-.283.954-.579,1.432-.868a85.2,85.2,0,0,0,15.833-12.437h0s.524-.464,1.377-1.321c31.557-30.135,20.4-74.352,20.4-74.352-19.77-76.138-95.961-65.686-95.961-65.686v.019c-71.85,4.472-115.678,60.347-135.647,93.837-2.639,4.623-64.864,115.654,1.777,190.392l0,.011S824.883,1854,927.69,1801.092c0,0,43.015-23.659,64.093-68.825l-1.721-2.553S969.984,1757.466,936.227,1773.6Z" fill="#44632d"/>
    <g id="Group_1" data-name="Group 1">
      <path id="Path_2" data-name="Path 2" d="M1409.608,1789.97a18.353,18.353,0,0,1-6.511-6.781,19.732,19.732,0,0,1,0-18.966,18.353,18.353,0,0,1,6.511-6.781,16.642,16.642,0,0,1,8.837-2.485,16.929,16.929,0,0,1,7.463,1.6,15.381,15.381,0,0,1,5.522,4.422l.037-21.453h7.542v52.213h-7.579V1786.5a15.361,15.361,0,0,1-5.522,4.369,17.062,17.062,0,0,1-7.463,1.576A16.722,16.722,0,0,1,1409.608,1789.97Zm16.485-5.85a11.271,11.271,0,0,0,4.284-4.316,12.677,12.677,0,0,0,0-12.207,11.483,11.483,0,0,0-4.284-4.284,12.282,12.282,0,0,0-11.963,0,11.757,11.757,0,0,0-5.913,10.377,11.9,11.9,0,0,0,1.6,6.114,11.5,11.5,0,0,0,4.316,4.316,12.206,12.206,0,0,0,11.963,0Z" fill="#e77721"/>
      <path id="Path_3" data-name="Path 3" d="M1460.546,1747.626a4.608,4.608,0,0,1-1.751-1.713,4.674,4.674,0,0,1,0-4.739,4.763,4.763,0,0,1,4.115-2.328,4.667,4.667,0,0,1,2.343.625,4.826,4.826,0,0,1,1.735,1.7,4.674,4.674,0,0,1,0,4.739,4.7,4.7,0,0,1-1.735,1.713,4.577,4.577,0,0,1-2.343.635A4.662,4.662,0,0,1,1460.546,1747.626Zm-1.481,8.113h7.547v36h-7.547Z" fill="#e77721"/>
      <path id="Path_4" data-name="Path 4" d="M1492.565,1806.535a18.467,18.467,0,0,1-7.695-7.045l5.3-4.316a12.932,12.932,0,0,0,12.07,6.929q5.473,0,8.33-2.941a11.053,11.053,0,0,0,2.85-8.039v-5.469a13.772,13.772,0,0,1-5.045,4.178,15.612,15.612,0,0,1-6.95,1.492,17.466,17.466,0,0,1-15.449-8.939,19.294,19.294,0,0,1-.021-18.469,17.173,17.173,0,0,1,6.41-6.495,17.537,17.537,0,0,1,8.991-2.359,15.554,15.554,0,0,1,6.966,1.492,14.26,14.26,0,0,1,5.1,4.21v-5.025h7.617v34.939a19.567,19.567,0,0,1-2.19,9.457,15.267,15.267,0,0,1-6.394,6.283,20.958,20.958,0,0,1-10.044,2.243A22.926,22.926,0,0,1,1492.565,1806.535Zm15.639-23.462a11.3,11.3,0,0,0,5.66-9.933,11.337,11.337,0,0,0-5.66-9.975,11.341,11.341,0,0,0-15.533,4.126,12,12,0,0,0,0,11.667,11.083,11.083,0,0,0,4.109,4.115,11.687,11.687,0,0,0,11.424,0Z" fill="#e77721"/>
      <path id="Path_5" data-name="Path 5" d="M1542.572,1747.626a4.612,4.612,0,0,1-1.75-1.713,4.668,4.668,0,0,1,0-4.739,4.76,4.76,0,0,1,4.114-2.328,4.661,4.661,0,0,1,2.343.625,4.818,4.818,0,0,1,1.735,1.7,4.674,4.674,0,0,1,0,4.739,4.689,4.689,0,0,1-1.735,1.713,4.572,4.572,0,0,1-2.343.635A4.662,4.662,0,0,1,1542.572,1747.626Zm-1.481,8.113h7.548v36h-7.548Z" fill="#e77721"/>
      <path id="Path_6" data-name="Path 6" d="M1577.633,1761.547v18.765a5.5,5.5,0,0,0,1.322,3.946,4.691,4.691,0,0,0,3.57,1.4h3.909v6.082H1581a12.907,12.907,0,0,1-5.8-1.227,8.728,8.728,0,0,1-3.808-3.586,11.419,11.419,0,0,1-1.344-5.722v-19.654h-5.876v-5.808h5.876v-9.964h7.585v9.964h8.869v5.808Z" fill="#e77721"/>
      <path id="Path_7" data-name="Path 7" d="M1608.906,1789.97a18.352,18.352,0,0,1-6.51-6.781,19.733,19.733,0,0,1,0-18.966,18.352,18.352,0,0,1,6.51-6.781,16.648,16.648,0,0,1,8.838-2.485,16.932,16.932,0,0,1,7.463,1.6,15.389,15.389,0,0,1,5.522,4.422l.037-5.237h7.542v36h-7.579V1786.5a15.369,15.369,0,0,1-5.522,4.369,17.065,17.065,0,0,1-7.463,1.576A16.728,16.728,0,0,1,1608.906,1789.97Zm16.486-5.85a11.27,11.27,0,0,0,4.284-4.316,12.678,12.678,0,0,0,0-12.207,11.482,11.482,0,0,0-4.284-4.284,12.282,12.282,0,0,0-11.963,0,11.761,11.761,0,0,0-5.914,10.377,11.9,11.9,0,0,0,1.6,6.114,11.493,11.493,0,0,0,4.316,4.316,12.206,12.206,0,0,0,11.963,0Z" fill="#e77721"/>
      <path id="Path_8" data-name="Path 8" d="M1658.364,1739.523h7.584v52.213h-7.584Z" fill="#e77721"/>
      <path id="Path_9" data-name="Path 9" d="M1723.629,1761.547v18.765a5.5,5.5,0,0,0,1.323,3.946,4.69,4.69,0,0,0,3.57,1.4h3.908v6.082h-5.437a12.909,12.909,0,0,1-5.8-1.227,8.733,8.733,0,0,1-3.808-3.586,11.429,11.429,0,0,1-1.343-5.722v-19.654h-5.876v-5.808h5.876v-9.964h7.584v9.964h8.87v5.808Z" fill="#e77721"/>
      <path id="Path_10" data-name="Path 10" d="M1761.805,1757.4a15.861,15.861,0,0,1,7.548-2v7.235q-5.888,0-9.076,2.486t-3.195,8.156v18.458H1749.5v-36h7.378v6.39A13.386,13.386,0,0,1,1761.805,1757.4Z" fill="#e77721"/>
      <path id="Path_11" data-name="Path 11" d="M1790.186,1789.97a18.353,18.353,0,0,1-6.511-6.781,19.732,19.732,0,0,1,0-18.966,18.353,18.353,0,0,1,6.511-6.781,16.643,16.643,0,0,1,8.838-2.485,16.924,16.924,0,0,1,7.462,1.6,15.381,15.381,0,0,1,5.522,4.422l.037-5.237h7.542v36h-7.579V1786.5a15.361,15.361,0,0,1-5.522,4.369,17.057,17.057,0,0,1-7.462,1.576A16.723,16.723,0,0,1,1790.186,1789.97Zm16.485-5.85a11.268,11.268,0,0,0,4.285-4.316,12.685,12.685,0,0,0,0-12.207,11.479,11.479,0,0,0-4.285-4.284,12.282,12.282,0,0,0-11.963,0,11.757,11.757,0,0,0-5.913,10.377,11.91,11.91,0,0,0,1.6,6.114,11.5,11.5,0,0,0,4.316,4.316,12.206,12.206,0,0,0,11.963,0Z" fill="#e77721"/>
      <path id="Path_12" data-name="Path 12" d="M1865.035,1756.723a11.538,11.538,0,0,1,4.729,4.993,17.749,17.749,0,0,1,1.7,8.124v21.9h-7.579v-20.807q0-9.313-8.055-9.308a9.036,9.036,0,0,0-4.421,1.068,7.553,7.553,0,0,0-3.057,3.226,11.262,11.262,0,0,0-1.122,5.258v20.563h-7.584v-36h7.584v5.131a12.23,12.23,0,0,1,4.517-4.3,12.782,12.782,0,0,1,6.289-1.513A14.271,14.271,0,0,1,1865.035,1756.723Z" fill="#e77721"/>
      <path id="Path_13" data-name="Path 13" d="M1893.59,1791.112a25.1,25.1,0,0,1-6.526-3.385l3.639-5.775a18.62,18.62,0,0,0,5.045,3,15.058,15.058,0,0,0,5.728,1.206,7.351,7.351,0,0,0,4.385-1.175,3.834,3.834,0,0,0,1.634-3.31,3.322,3.322,0,0,0-.989-2.5,7.382,7.382,0,0,0-2.428-1.555q-1.443-.571-4.268-1.428a44.456,44.456,0,0,1-5.691-2.115,10.314,10.314,0,0,1-3.76-3.068,8.451,8.451,0,0,1-1.56-5.321,9.483,9.483,0,0,1,1.782-5.828,10.887,10.887,0,0,1,4.76-3.6,17.348,17.348,0,0,1,6.58-1.206,21.761,21.761,0,0,1,6.357.952,21.094,21.094,0,0,1,5.744,2.719l-3.74,5.331a15.526,15.526,0,0,0-4.337-2.221,14.179,14.179,0,0,0-4.4-.772,6.959,6.959,0,0,0-3.993,1.036,3.306,3.306,0,0,0-1.513,2.878,2.9,2.9,0,0,0,.936,2.179,7.284,7.284,0,0,0,2.343,1.438c.942.381,2.248.815,3.925,1.312l1.227.37a30.646,30.646,0,0,1,5.336,2.095,10.275,10.275,0,0,1,3.655,3.258,9.363,9.363,0,0,1,1.476,5.458,10.3,10.3,0,0,1-6.474,10.017,17.739,17.739,0,0,1-7.018,1.3A23.545,23.545,0,0,1,1893.59,1791.112Z" fill="#e77721"/>
      <path id="Path_14" data-name="Path 14" d="M1949.95,1761.547h-8.87v30.189H1933.5v-30.189h-5.881v-5.808h5.881V1750.5q0-5.568,2.856-8.621,2.848-3.03,8.018-3.036a19.759,19.759,0,0,1,5.511.847v6.22a10.962,10.962,0,0,0-3.808-.783,4.731,4.731,0,0,0-3.67,1.449,5.911,5.911,0,0,0-1.328,4.157v5h8.87Z" fill="#e77721"/>
      <path id="Path_15" data-name="Path 15" d="M1971.111,1789.948a18.375,18.375,0,0,1-6.95-6.727,18.914,18.914,0,0,1,0-18.966,18.379,18.379,0,0,1,6.95-6.728,20.474,20.474,0,0,1,19.479,0,18.385,18.385,0,0,1,6.95,6.728,18.914,18.914,0,0,1,0,18.966,18.382,18.382,0,0,1-6.95,6.727,20.474,20.474,0,0,1-19.479,0Zm15.687-5.891a11.91,11.91,0,0,0,0-20.638,12.209,12.209,0,0,0-11.964,0,11.606,11.606,0,0,0-4.3,4.284,12.308,12.308,0,0,0,0,12.07,11.619,11.619,0,0,0,4.3,4.284,12.216,12.216,0,0,0,11.964,0Z" fill="#e77721"/>
      <path id="Path_16" data-name="Path 16" d="M2029.39,1757.4a15.861,15.861,0,0,1,7.547-2v7.235q-5.886,0-9.076,2.486t-3.194,8.156v18.458h-7.585v-36h7.379v6.39A13.371,13.371,0,0,1,2029.39,1757.4Z" fill="#e77721"/>
      <path id="Path_17" data-name="Path 17" d="M2097.126,1756.575a10.814,10.814,0,0,1,4.316,4.242,12.6,12.6,0,0,1,1.544,6.3v24.615h-7.547V1769.5c0-2.644-.63-4.612-1.883-5.881a6.622,6.622,0,0,0-4.914-1.9,6.76,6.76,0,0,0-5.236,2.116,8.469,8.469,0,0,0-1.936,5.944v21.96h-7.579V1769.5c0-2.644-.624-4.612-1.872-5.881a6.6,6.6,0,0,0-4.929-1.9,6.728,6.728,0,0,0-5.215,2.094,8.517,8.517,0,0,0-1.92,5.966v21.96h-7.585v-36h7.585v5.025a11.61,11.61,0,0,1,4.247-4.21,11.81,11.81,0,0,1,5.95-1.492,12.428,12.428,0,0,1,6.029,1.407,9.151,9.151,0,0,1,3.962,4.3,12.246,12.246,0,0,1,10.6-5.7A13.034,13.034,0,0,1,2097.126,1756.575Z" fill="#e77721"/>
      <path id="Path_18" data-name="Path 18" d="M2128.278,1789.97a18.354,18.354,0,0,1-6.511-6.781,19.733,19.733,0,0,1,0-18.966,18.354,18.354,0,0,1,6.511-6.781,16.642,16.642,0,0,1,8.838-2.485,16.924,16.924,0,0,1,7.462,1.6,15.382,15.382,0,0,1,5.522,4.422l.037-5.237h7.542v36H2150.1V1786.5a15.362,15.362,0,0,1-5.522,4.369,17.057,17.057,0,0,1-7.462,1.576A16.723,16.723,0,0,1,2128.278,1789.97Zm16.485-5.85a11.267,11.267,0,0,0,4.285-4.316,12.685,12.685,0,0,0,0-12.207,11.479,11.479,0,0,0-4.285-4.284,12.282,12.282,0,0,0-11.963,0,11.757,11.757,0,0,0-5.913,10.377,11.911,11.911,0,0,0,1.6,6.114,11.5,11.5,0,0,0,4.316,4.316,12.206,12.206,0,0,0,11.963,0Z" fill="#e77721"/>
      <path id="Path_19" data-name="Path 19" d="M2186.679,1761.547v18.765a5.5,5.5,0,0,0,1.322,3.946,4.691,4.691,0,0,0,3.57,1.4h3.908v6.082h-5.437a12.9,12.9,0,0,1-5.8-1.227,8.723,8.723,0,0,1-3.808-3.586,11.417,11.417,0,0,1-1.344-5.722v-19.654h-5.876v-5.808h5.876v-9.964h7.585v9.964h8.869v5.808Z" fill="#e77721"/>
      <path id="Path_20" data-name="Path 20" d="M2214.022,1747.626a4.613,4.613,0,0,1-1.75-1.713,4.674,4.674,0,0,1,0-4.739,4.764,4.764,0,0,1,4.115-2.328,4.667,4.667,0,0,1,2.343.625,4.815,4.815,0,0,1,1.734,1.7,4.668,4.668,0,0,1,0,4.739,4.686,4.686,0,0,1-1.734,1.713,4.577,4.577,0,0,1-2.343.635A4.669,4.669,0,0,1,2214.022,1747.626Zm-1.48,8.113h7.547v36h-7.547Z" fill="#e77721"/>
      <path id="Path_21" data-name="Path 21" d="M2246.6,1789.948a18.283,18.283,0,0,1-9.509-16.226,18.115,18.115,0,0,1,2.549-9.467,18.335,18.335,0,0,1,6.96-6.728,20.444,20.444,0,0,1,19.464,0,18.493,18.493,0,0,1,6.96,6.728,18.978,18.978,0,0,1,0,18.966,18.489,18.489,0,0,1-6.96,6.727,20.444,20.444,0,0,1-19.464,0Zm15.677-5.891a11.56,11.56,0,0,0,4.316-4.306,12.095,12.095,0,0,0,0-12.048,11.649,11.649,0,0,0-4.316-4.284,11.871,11.871,0,0,0-5.987-1.566,11.723,11.723,0,0,0-11.858,11.869,11.9,11.9,0,0,0,1.576,6.051,11.8,11.8,0,0,0,10.282,5.849A11.88,11.88,0,0,0,2262.274,1784.057Z" fill="#e77721"/>
      <path id="Path_22" data-name="Path 22" d="M2317.956,1756.723a11.508,11.508,0,0,1,4.728,4.993,17.737,17.737,0,0,1,1.7,8.124v21.9H2316.8v-20.807q0-9.313-8.06-9.308a9.008,9.008,0,0,0-4.411,1.068,7.548,7.548,0,0,0-3.068,3.226,11.4,11.4,0,0,0-1.121,5.258v20.563h-7.574v-36h7.574v5.131a12.294,12.294,0,0,1,4.527-4.3,12.732,12.732,0,0,1,6.283-1.513A14.289,14.289,0,0,1,2317.956,1756.723Z" fill="#e77721"/>
      <path id="Path_23" data-name="Path 23" d="M2344.02,1804.514l3.713-21.822h8.356l-6.452,21.822Z" fill="#e77721"/>
      <path id="Path_24" data-name="Path 24" d="M2416.3,1757.4a15.822,15.822,0,0,1,7.542-2v7.235q-5.871,0-9.076,2.486-3.189,2.475-3.194,8.156v18.458H2404v-36h7.373v6.39A13.339,13.339,0,0,1,2416.3,1757.4Z" fill="#e77721"/>
      <path id="Path_25" data-name="Path 25" d="M2473.134,1774.811h-30.157a11.984,11.984,0,0,0,1.787,5.839,11.332,11.332,0,0,0,4.231,4.02,11.8,11.8,0,0,0,5.744,1.428,11.95,11.95,0,0,0,5.85-1.47,11.4,11.4,0,0,0,4.316-4.1l6.156,2.612a17.046,17.046,0,0,1-6.632,6.812,18.927,18.927,0,0,1-9.658,2.465,19.579,19.579,0,0,1-9.806-2.475,18.1,18.1,0,0,1-6.833-6.77,19.2,19.2,0,0,1,.021-18.86,18.222,18.222,0,0,1,6.812-6.781,19.722,19.722,0,0,1,18.956-.159,17.706,17.706,0,0,1,6.7,6.527,18.845,18.845,0,0,1,2.581,9.414Zm-25.63-11.424a11.478,11.478,0,0,0-4.083,6.252h21.991a10.981,10.981,0,0,0-2.052-4.538,10,10,0,0,0-3.776-3,11.431,11.431,0,0,0-4.94-1.058A11.28,11.28,0,0,0,2447.5,1763.387Z" fill="#e77721"/>
      <path id="Path_26" data-name="Path 26" d="M2491.3,1747.626a4.68,4.68,0,0,1-1.746-1.713,4.674,4.674,0,0,1,0-4.739,4.779,4.779,0,0,1,1.735-1.7,4.783,4.783,0,0,1,4.728,0,4.752,4.752,0,0,1,1.725,1.7,4.674,4.674,0,0,1,0,4.739,4.75,4.75,0,0,1-4.073,2.348A4.707,4.707,0,0,1,2491.3,1747.626Zm-1.471,8.113h7.542v36h-7.542Z" fill="#e77721"/>
      <path id="Path_27" data-name="Path 27" d="M2562.169,1756.575a10.752,10.752,0,0,1,4.316,4.242,12.554,12.554,0,0,1,1.554,6.3v24.615h-7.552V1769.5c0-2.644-.624-4.612-1.883-5.881a6.624,6.624,0,0,0-4.919-1.9,6.751,6.751,0,0,0-5.225,2.116,8.421,8.421,0,0,0-1.947,5.944v21.96h-7.573V1769.5c0-2.644-.625-4.612-1.873-5.881a6.6,6.6,0,0,0-4.929-1.9,6.72,6.72,0,0,0-5.215,2.094,8.519,8.519,0,0,0-1.925,5.966v21.96h-7.574v-36H2525v5.025a11.659,11.659,0,0,1,4.252-4.21,11.794,11.794,0,0,1,5.945-1.492,12.463,12.463,0,0,1,6.04,1.407,9.164,9.164,0,0,1,3.956,4.3,12.231,12.231,0,0,1,10.61-5.7A12.98,12.98,0,0,1,2562.169,1756.575Z" fill="#e77721"/>
      <path id="Path_28" data-name="Path 28" d="M2593.331,1789.97a18.3,18.3,0,0,1-6.505-6.781,19.7,19.7,0,0,1,0-18.966,18.3,18.3,0,0,1,6.505-6.781,16.665,16.665,0,0,1,8.843-2.485,16.926,16.926,0,0,1,7.458,1.6,15.389,15.389,0,0,1,5.522,4.422l.031-5.237h7.553v36h-7.584V1786.5a15.369,15.369,0,0,1-5.522,4.369,17.059,17.059,0,0,1-7.458,1.576A16.745,16.745,0,0,1,2593.331,1789.97Zm16.491-5.85a11.244,11.244,0,0,0,4.274-4.316,12.685,12.685,0,0,0,0-12.207,11.454,11.454,0,0,0-4.274-4.284,11.87,11.87,0,0,0-17.887,10.377,12.019,12.019,0,0,0,1.6,6.114,11.58,11.58,0,0,0,4.316,4.316,12.227,12.227,0,0,0,11.974,0Z" fill="#e77721"/>
      <path id="Path_29" data-name="Path 29" d="M2648.686,1806.535a18.539,18.539,0,0,1-7.7-7.045l5.31-4.316a12.91,12.91,0,0,0,12.059,6.929q5.473,0,8.335-2.941a11.031,11.031,0,0,0,2.856-8.039v-5.469a13.85,13.85,0,0,1-5.056,4.178,15.545,15.545,0,0,1-6.95,1.492,17.463,17.463,0,0,1-15.443-8.939,19.255,19.255,0,0,1-.022-18.469,17.182,17.182,0,0,1,6.411-6.495,17.534,17.534,0,0,1,8.991-2.359,15.611,15.611,0,0,1,6.971,1.492,14.388,14.388,0,0,1,5.1,4.21v-5.025h7.616v34.939a19.572,19.572,0,0,1-2.2,9.457,15.193,15.193,0,0,1-6.389,6.283,20.934,20.934,0,0,1-10.038,2.243A22.912,22.912,0,0,1,2648.686,1806.535Zm15.634-23.462a11.27,11.27,0,0,0,5.659-9.933,11.306,11.306,0,0,0-5.659-9.975,11.347,11.347,0,0,0-15.529,4.126,12.009,12.009,0,0,0,0,11.667,11.054,11.054,0,0,0,4.115,4.115,11.668,11.668,0,0,0,11.414,0Z" fill="#e77721"/>
      <path id="Path_30" data-name="Path 30" d="M2698.677,1747.626a4.672,4.672,0,0,1-1.745-1.713,4.668,4.668,0,0,1,0-4.739,4.777,4.777,0,0,1,1.734-1.7,4.748,4.748,0,0,1,6.453,1.7,4.674,4.674,0,0,1,0,4.739,4.746,4.746,0,0,1-4.073,2.348A4.71,4.71,0,0,1,2698.677,1747.626Zm-1.47,8.113h7.542v36h-7.542Z" fill="#e77721"/>
      <path id="Path_31" data-name="Path 31" d="M2750.2,1756.723a11.5,11.5,0,0,1,4.728,4.993,17.734,17.734,0,0,1,1.7,8.124v21.9h-7.584v-20.807q0-9.313-8.06-9.308a9.011,9.011,0,0,0-4.411,1.068,7.554,7.554,0,0,0-3.068,3.226,11.4,11.4,0,0,0-1.121,5.258v20.563h-7.574v-36h7.574v5.131a12.3,12.3,0,0,1,4.527-4.3,12.736,12.736,0,0,1,6.284-1.513A14.284,14.284,0,0,1,2750.2,1756.723Z" fill="#e77721"/>
      <path id="Path_32" data-name="Path 32" d="M2810.232,1774.811h-30.158a11.993,11.993,0,0,0,1.788,5.839,11.33,11.33,0,0,0,4.231,4.02,11.8,11.8,0,0,0,5.744,1.428,11.943,11.943,0,0,0,5.849-1.47,11.389,11.389,0,0,0,4.316-4.1l6.157,2.612a17.047,17.047,0,0,1-6.633,6.812,18.923,18.923,0,0,1-9.657,2.465,19.577,19.577,0,0,1-9.806-2.475,18.11,18.11,0,0,1-6.834-6.77,19.2,19.2,0,0,1,.022-18.86,18.223,18.223,0,0,1,6.812-6.781,19.721,19.721,0,0,1,18.955-.159,17.7,17.7,0,0,1,6.7,6.527,18.837,18.837,0,0,1,2.581,9.414Zm-25.63-11.424a11.474,11.474,0,0,0-4.084,6.252h21.992a10.993,10.993,0,0,0-2.052-4.538,10,10,0,0,0-3.776-3,11.437,11.437,0,0,0-4.94-1.058A11.276,11.276,0,0,0,2784.6,1763.387Z" fill="#e77721"/>
      <path id="Path_33" data-name="Path 33" d="M2832.869,1789.97a18.3,18.3,0,0,1-6.506-6.781,19.7,19.7,0,0,1,0-18.966,18.3,18.3,0,0,1,6.506-6.781,16.661,16.661,0,0,1,8.843-2.485,16.921,16.921,0,0,1,7.457,1.6,15.381,15.381,0,0,1,5.522,4.422l.032-21.453h7.552v52.213h-7.584V1786.5a15.361,15.361,0,0,1-5.522,4.369,17.054,17.054,0,0,1-7.457,1.576A16.741,16.741,0,0,1,2832.869,1789.97Zm16.491-5.85a11.245,11.245,0,0,0,4.273-4.316,12.678,12.678,0,0,0,0-12.207,11.455,11.455,0,0,0-4.273-4.284,11.872,11.872,0,0,0-17.888,10.377,12.008,12.008,0,0,0,1.6,6.114,11.574,11.574,0,0,0,4.315,4.316,12.229,12.229,0,0,0,11.975,0Z" fill="#e77721"/>
    </g>
    <g id="Group_2" data-name="Group 2">
      <path id="Path_34" data-name="Path 34" d="M2293.531,1477.155c-64.386,0-111.121,45.721-111.121,108.71,0,62.163,47.772,109.03,111.121,109.03,48.422,0,88.06-25.908,104.435-67.913h-62.112c-8.734,12.7-24.42,20.231-42.323,20.231-26.832,0-44.566-15.056-49.933-42.393l-.941-4.786h161.35l.336-2.4a123.563,123.563,0,0,0,.811-13.654C2405.154,1522.081,2358.208,1477.155,2293.531,1477.155Zm0,46.163c25.086,0,42.926,13.3,50.235,37.461l1.621,5.365H2243.541l1.47-5.248C2251.819,1536.664,2269.048,1523.318,2293.527,1523.318Z" fill="#44632d"/>
      <rect id="Rectangle_2" data-name="Rectangle 2" width="62.222" height="203.604" transform="translate(1824.693 1484.213)" fill="#44632d"/>
      <path id="Path_35" data-name="Path 35" d="M2039.661,1694.9c-65.5-.007-113.043-45.912-113.043-109.16,0-63.732,46.578-108.247,113.278-108.247,54.228,0,96.813,33.416,107.039,83.529H2085.77c-8.057-17.687-25.94-29.008-46.109-29.008-29.376,0-50.7,22.69-50.7,53.95,0,31.533,21.328,54.427,50.7,54.427,20.921,0,38.545-12,46.446-31.467h61.618c-10.476,51.573-53.476,85.976-108.064,85.976Z" fill="#44632d"/>
      <path id="Path_36" data-name="Path 36" d="M2583.159,1687.825V1572.617c0-37.907-21.4-43.568-34.153-43.568-26.612,0-42.506,18.556-42.506,49.644v109.132h-62.23v-203.6H2486.5l12.41,27.079,6.13-6.839c15.4-17.163,37.919-26.617,63.4-26.617,46.751,0,76.949,33.174,76.949,84.516v125.465Z" fill="#44632d"/>
      <circle id="Ellipse_1" data-name="Ellipse 1" cx="34.59" cy="34.59" r="34.59" transform="translate(1821.21 1391.343)" fill="#44632d"/>
      <path id="Path_37" data-name="Path 37" d="M1511.79,1477.155c-64.386,0-111.121,45.721-111.121,108.71,0,62.163,47.772,109.03,111.121,109.03,48.423,0,88.06-25.908,104.435-67.913h-62.112c-8.734,12.7-24.42,20.231-42.323,20.231-26.831,0-44.565-15.056-49.933-42.393l-.941-4.786h161.35l.336-2.4a123.532,123.532,0,0,0,.811-13.654C1623.413,1522.081,1576.467,1477.155,1511.79,1477.155Zm0,46.163c25.086,0,42.925,13.3,50.234,37.461l1.621,5.365H1461.8l1.47-5.248C1470.078,1536.664,1487.307,1523.318,1511.787,1523.318Z" fill="#44632d"/>
      <path id="Path_38" data-name="Path 38" d="M2772.955,1694.9c-51.518-.007-85.256-25.1-88.842-65.721h59.646c2.482,14.281,13.976,23.035,30.59,23.035,16.012,0,27.192-9.341,27.192-22.714,0-18.415-23.34-22.263-42.092-25.352-36.8-5.97-72.721-15.663-72.721-61.881,0-39.551,33.785-65.111,86.071-65.111,48.1,0,81.06,23.782,84.951,60.867h-57.7c-2.428-12.684-12.778-20.165-28.179-20.165-15.51,0-25.939,8.8-25.939,21.9,0,17.241,20.192,20.839,41.567,24.648l2.145.38c34.043,6.028,72.627,12.864,72.627,61.579,0,41.63-35.061,68.532-89.32,68.532Z" fill="#44632d"/>
      <path id="Path_39" data-name="Path 39" d="M1762.816,1440h20.764v-44.934h-39.806c-40.917,0-63.455,22.193-63.455,62.484v26.672h-18.8v46.308h55.37l-37.484,24.734v132.556h62.23v-157.29h29.7v-46.308h-32.148v-20.663C1739.186,1449.244,1748.464,1440,1762.816,1440Z" fill="#44632d"/>
    </g>
    <path id="Path_40" data-name="Path 40" d="M1316.435,1523.815c-10.53,1.766-21.045,3.607-31.513,5.718-19.742,3.983-39.334,8.592-58.7,14.129-23.543,6.733-46.674,14.722-69.671,23.093-18.58,6.764-37.086,13.731-55.621,20.615v.006l-6.241,2.421.116-6.685c.254-9.953.616-19.9,1.251-29.839.842-13.146,2.071-26.248,3.814-39.3a362.977,362.977,0,0,1,8.682-44.991c2.948-11.128,6.516-22.042,11.841-32.3a39.965,39.965,0,0,1,7.384-10.627,13.357,13.357,0,0,1,12.358-3.854c9.407,1.7,13.78,10.874,9.021,19.144a16.584,16.584,0,0,0-2.2,5.643c-.606,3.784,1.529,6.665,5.326,7.086a10.091,10.091,0,0,0,3.423-.214,25.326,25.326,0,0,0,7.1-2.881c6.592-3.861,11.868-9.168,16.561-15.11a34.889,34.889,0,0,0,5.508-8.713c4.6-11.72,3.507-23.1-2.516-33.968-5.356-9.664-13.791-15.683-24.13-19.2-8.585-2.921-17.443-3.545-26.432-3.249a72.341,72.341,0,0,0-48.189,19.849c-9.737,9-17.023,19.818-23.05,31.534-7.437,14.457-12.676,29.744-16.847,45.408a449.58,449.58,0,0,0-12.357,67.19q-2.1,19.389-2.868,38.861c-.5,12.75-.438,25.511-.133,38.27l.138,5.347-6.726,4.017.015.013a208.914,208.914,0,0,0-31.168,20.806c-8.646,7.142-16.469,15.033-21.891,24.989-4.606,8.458-6.907,17.4-4.813,27.042,2.494,11.483,9.273,19.921,19.2,25.831a141.862,141.862,0,0,0,25.708,11.9,170.736,170.736,0,0,0,26.36,6.94c2.925.524,2.885.561,3.234,3.444q.818,6.71,1.719,13.407c1.691,12.613,4.187,25.094,6.278,37.641,2.336,14.023,10.242,24.446,21.751,32.253a22.491,22.491,0,0,0,18.549,3.109,54.393,54.393,0,0,0,7.561-2.442c11.635-4.694,23.047-9.956,35.019-13.8a13.215,13.215,0,0,0,3.578-1.713c2.932-2.048,3.382-4.621,1.258-7.492a29.687,29.687,0,0,0-4.459-4.528c-3.323-2.917-6.646-5.834-10.005-8.71a13.666,13.666,0,0,1-4.4-7.369q-1.962-7.842-4.234-15.607a202.54,202.54,0,0,1-5.067-23.024c-.393-2.3-.325-2.415,1.62-2.574,11.529-.948,22.982-2.491,34.386-4.4,1.848-.309,3.819-.3,5.8-1.37-4.274-.221-8.251-.342-12.223-.509-9.8-.413-19.559-1.269-29.316-2.211-1.381-.134-1.963-.56-2.109-2.021-.66-6.593-1.516-13.166-2.172-19.759-1.066-10.726-2.049-21.462-3.034-32.2-.654-7.128-1.345-14.255-1.846-21.394-.524-7.472-.859-14.958-1.3-22.437l-.192-2.766,1.546-.865c3.591-1.906,7.11-3.946,10.679-5.895,13.887-7.58,27.563-15.548,41.618-22.821q28.38-14.685,56.784-29.323c8.012-4.13,15.978-8.365,24.1-12.266,12.03-5.774,24.208-11.235,36.449-16.552,16.373-7.113,32.795-14.1,49.722-19.828a3.653,3.653,0,0,0,1.919-1A18.108,18.108,0,0,0,1316.435,1523.815Zm-289.608,175.091c-1.247-9.62,4.721-16.924,4.721-16.924l.174,2.179,0,0c.815,8.976,1.579,17.375,2.349,25.843C1028.58,1707.378,1026.827,1698.906,1026.827,1698.906Zm7.356-84.332-.075-1.356c-.011-.167-.017-.332-.028-.5l-.393-8.985c-.145-11.455.008-22.911.553-34.351,1.548-32.475,5.668-64.6,13.736-96.141,4.545-17.772,10.264-35.125,19.02-51.34,6.489-12.018,14.436-22.881,25.29-31.376a66.146,66.146,0,0,1,36.044-14,73.283,73.283,0,0,1,24.738,1.759c8.414,2.181,15.87,6.121,21.315,13.092,7.214,9.234,9.4,19.6,6.3,30.975a17.633,17.633,0,0,1-2.191,5.1c-4.666,7.083-10.2,13.347-17.386,17.99a18.042,18.042,0,0,1-6.508,2.882c-2.028.367-2.432-.169-1.631-2.095a28.413,28.413,0,0,1,1.328-2.594c6.66-12.228-1.253-26.33-15.184-27.239-7.507-.49-13.154,2.7-17.7,8.308-4.277,5.277-7.153,11.359-9.792,17.548-5.6,13.148-9.2,26.907-12.15,40.847-2.894,13.667-4.976,27.462-6.521,41.348-1.554,13.974-2.55,27.981-3.226,42.025-.332,6.889-.332,13.782-.607,20.669l-.2,4.444-2.465.85a426.931,426.931,0,0,0-50.137,21.069Zm69.005,144.225c2.047,8.95,4.712,17.759,7.094,26.632a16.338,16.338,0,0,0,4.58,7.626c3.31,3.2,6.933,6.04,10.363,9.1a30.532,30.532,0,0,1,3.886,3.819,3.79,3.79,0,0,1-2.179,1.272c-11.551,3.7-22.569,8.75-33.782,13.3a55.206,55.206,0,0,1-7.272,2.474,18.1,18.1,0,0,1-15.87-2.994c-9.722-7.221-16.464-16.415-18.306-28.713-1.715-11.444-4.159-22.767-5.719-34.236-1.142-8.4-2.2-16.816-3.321-25.221-.977-7.355-2.262-14.667-2.911-22.066-.57-6.513-1.251-13.014-1.856-19.523-.352-3.783-.582-7.579-1.005-11.352a6.454,6.454,0,0,1,1.6-5.321,117.685,117.685,0,0,1,24.567-21.724c6.764-4.483,13.64-8.807,20.683-12.854l6.416-3.776.448,8.488.03-.089q.742,15.543,2.28,31.032c.852,8.527,1.46,17.079,2.292,25.609C1097.116,1719.892,1098.785,1739.547,1103.188,1758.8Z" fill="#e77721"/>
  </g>
</svg>
