<svg width="30" height="18" viewBox="0 0 30 18" fill="none" xmlns="http://www.w3.org/2000/svg">
<path d="M0.0525312 9.13282C-0.440635 13.4838 2.61486 16.8208 6.01537 17.1798C9.54453 17.5528 12.7813 14.7008 12.5328 11.1638C12.3641 8.75582 10.6829 7.62182 9.05525 6.51082C7.566 5.49482 8.11473 3.36483 9.39443 2.61483C10.1673 2.16183 11.1264 2.23583 11.908 1.39083C12.1156 1.16583 12.138 0.302827 11.8739 0.153827C10.6731 -0.526173 0.995979 0.803815 0.0525312 9.13282Z" fill="#FF984A"/>
<path d="M17.5063 9.13282C17.0132 13.4838 20.0686 16.8208 23.4692 17.1798C26.9983 17.5528 30.2351 14.7008 29.9866 11.1638C29.8179 8.75582 28.1367 7.62182 26.509 6.51082C25.0198 5.49482 25.5685 3.36483 26.8482 2.61483C27.6211 2.16183 28.5802 2.23583 29.3618 1.39083C29.5694 1.16583 29.5918 0.302827 29.3277 0.153827C28.1269 -0.526173 18.4498 0.803815 17.5063 9.13282Z" fill="#FF984A"/>
</svg>
